<?xml version="1.0" encoding="UTF-8"?>
<svg xmlns="http://www.w3.org/2000/svg" xmlns:xlink="http://www.w3.org/1999/xlink" viewBox="0 0 24 24" version="1.1" width="48px" height="48px">
<g id="surface1">
<path style=" " d="M 0 0 L 0 2 L 3.21875 2 L 7.21875 18 L 20.75 18 L 20.96875 17.28125 L 23.03125 10.34375 L 23.75 8 L 6.78125 8 L 4.78125 0 Z M 16 0 L 16 2 L 10 2 L 10 4 L 16 4 L 16 6 L 20.09375 3 Z M 7.28125 10 L 21.0625 10 L 19.25 16 L 8.78125 16 Z M 10.5 19 C 9.121094 19 8 20.121094 8 21.5 C 8 22.878906 9.121094 24 10.5 24 C 11.878906 24 13 22.878906 13 21.5 C 13 20.121094 11.878906 19 10.5 19 Z M 17.5 19 C 16.121094 19 15 20.121094 15 21.5 C 15 22.878906 16.121094 24 17.5 24 C 18.878906 24 20 22.878906 20 21.5 C 20 20.121094 18.878906 19 17.5 19 Z "/>
</g>
</svg>
